
<svg version="1.1"  xmlns="http://www.w3.org/2000/svg" xmlns:xlink="http://www.w3.org/1999/xlink" x="0px" y="0px" viewBox="0 0 3685.04 2551.18"  xml:space="preserve">
<g>
	<path style="clip-path:url(#SVGID_2_);fill:#D8E4A2;" d="M3108.011,797.112c-152.192,233.044-470.562,664.977-1341.862,659.671
		c-758.004-4.605-1268.275,150.491-1676.109,323.099l-0.078,0.048c476.11-274.574,937.767-458.511,1412.061-449.514
		c779.624,14.809,1175.074-210.834,1605.793-533.329L3108.011,797.112z"/>
	<path style="clip-path:url(#SVGID_2_);fill:none;stroke:#FFFFFF;stroke-width:2.5;stroke-miterlimit:10;" d="M349.604,1659.716
		c7.608-3.495,15.194-6.942,22.759-10.345"/>
	
		<path style="clip-path:url(#SVGID_2_);fill:none;stroke:#FFFFFF;stroke-width:2.5;stroke-miterlimit:10;stroke-dasharray:49.305,98.611;" d="
		M462.937,1610.385c1050.52-431.939,1687.334,10.63,2360.206-561.251"/>
	<path style="clip-path:url(#SVGID_2_);fill:none;stroke:#FFFFFF;stroke-width:2.5;stroke-miterlimit:10;" d="M2860.214,1016.623
		c6.135-5.548,12.274-11.182,18.418-16.905"/>
	<path style="clip-path:url(#SVGID_2_);fill:#87C05A;" d="M3583.698,900.864c-151.999,160.838-609.395,534.479-1284.24,423.378
		c-672.786-110.759-1142.401-31.497-1528.017,75.168l-0.078,0.048c460.432-196.719,987.291-273.35,1314.367-223.079
		c693.032,106.501,1070.863-24.418,1497.811-275.563L3583.698,900.864z"/>
	
		<path style="clip-path:url(#SVGID_2_);fill:none;stroke:#FFFFFF;stroke-width:2.5;stroke-miterlimit:10;stroke-dasharray:50,100;" d="
		M1087.419,1306.967c978.249-265.964,1475.482,211.587,2269.006-249.39"/>
</g>
<text transform="matrix(1 0 0 1 336.0894 1069.9268)" style="fill:#F1892F; font-family:'Verdana'; font-size:370.44;">Energi</text>
<text transform="matrix(1 0 0 1 1515.9399 1069.9268)" style="fill:#87C05A; font-family:'Verdana'; font-size:370.44;">safari</text>
<text transform="matrix(1 0 0 1 3135.3398 1598.4482)" style="fill:#787B7F; font-family:'Verdana'; font-size:229.4434;">DK</text>
<g>
	<defs>
		<rect id="SVGID_3_" width="3685.04" height="2551.18"/>
	</defs>
	<clipPath id="SVGID_4_">
		<use xlink:href="#SVGID_3_"  style="overflow:visible;"/>
	</clipPath>
	
		<ellipse style="clip-path:url(#SVGID_4_);fill:none;stroke:#787B7F;stroke-width:15;stroke-miterlimit:10;" cx="3309.102" cy="1514.622" rx="225.577" ry="153.646"/>
</g>
</svg>
